HIERARCHY
ROOT Hips
{
	OFFSET -14.64140 90.27770 -84.91600
	CHANNELS 6 Xposition Yposition Zposition Zrotation Xrotation Yrotation
	JOINT Spine
	{
		OFFSET 0.00000 13.20850 -1.60436
		CHANNELS 3 Zrotation Xrotation Yrotation
		JOINT Spine1
		{
			OFFSET 0.00000 8.61716 0.00000
			CHANNELS 3 Zrotation Xrotation Yrotation
			JOINT Spine2
			{
				OFFSET 0.00000 8.61717 0.00000
				CHANNELS 3 Zrotation Xrotation Yrotation
				JOINT Spine3
				{
					OFFSET 0.00000 8.61717 0.00000
					CHANNELS 3 Zrotation Xrotation Yrotation
					JOINT Neck
					{
						OFFSET 0.00000 11.07920 1.10792
						CHANNELS 3 Zrotation Xrotation Yrotation
						JOINT Neck1
						{
							OFFSET 0.00000 7.08032 0.00000
							CHANNELS 3 Zrotation Xrotation Yrotation
							JOINT Head
							{
								OFFSET 0.00000 7.08031 0.00000
								CHANNELS 3 Zrotation Xrotation Yrotation
								End site
								{
									OFFSET 0.00000 0.00000 0.00000
								}
							}
						}
					}
					JOINT RightShoulder
					{
						OFFSET -0.01000 7.91373 5.19711
						CHANNELS 3 Zrotation Xrotation Yrotation
						JOINT RightArm
						{
							OFFSET -18.41580 0.00000 0.00000
							CHANNELS 3 Zrotation Xrotation Yrotation
							JOINT RightForeArm
							{
								OFFSET -29.11090 0.00000 0.00000
								CHANNELS 3 Zrotation Xrotation Yrotation
								JOINT RightHand
								{
									OFFSET -24.65040 0.00000 0.00000
									CHANNELS 3 Zrotation Xrotation Yrotation
									JOINT RightHandThumb1
									{
										OFFSET -5.35114 -0.85590 3.97906
										CHANNELS 3 Zrotation Xrotation Yrotation
										JOINT RightHandThumb2
										{
											OFFSET -4.52789 0.00000 0.00000
											CHANNELS 3 Zrotation Xrotation Yrotation
											JOINT RightHandThumb3
											{
												OFFSET -2.46976 0.00000 0.00000
												CHANNELS 3 Zrotation Xrotation Yrotation
												End site
												{
													OFFSET 0.00000 0.00000 0.00000
												}
											}
										}
									}
									JOINT RightHandIndex1
									{
										OFFSET -14.26970 0.00000 2.88139
										CHANNELS 3 Zrotation Xrotation Yrotation
										JOINT RightHandIndex2
										{
											OFFSET -5.48836 0.00000 0.00000
											CHANNELS 3 Zrotation Xrotation Yrotation
											JOINT RightHandIndex3
											{
												OFFSET -3.01859 0.00000 0.00000
												CHANNELS 3 Zrotation Xrotation Yrotation
												End site
												{
													OFFSET 0.00000 0.00000 0.00000
												}
											}
										}
									}
									JOINT RightHandMiddle1
									{
										OFFSET -14.26970 0.00000 -0.09147
										CHANNELS 3 Zrotation Xrotation Yrotation
										JOINT RightHandMiddle2
										{
											OFFSET -6.17441 0.00000 0.00000
											CHANNELS 3 Zrotation Xrotation Yrotation
											JOINT RightHandMiddle3
											{
												OFFSET -3.56743 0.00000 0.00000
												CHANNELS 3 Zrotation Xrotation Yrotation
												End site
												{
													OFFSET 0.00000 0.00000 0.00000
												}
											}
										}
									}
									JOINT RightHandRing1
									{
										OFFSET -12.69180 0.00000 -3.06433
										CHANNELS 3 Zrotation Xrotation Yrotation
										JOINT RightHandRing2
										{
											OFFSET -5.62556 0.00000 0.00000
											CHANNELS 3 Zrotation Xrotation Yrotation
											JOINT RightHandRing3
											{
												OFFSET -3.56744 0.00000 0.00000
												CHANNELS 3 Zrotation Xrotation Yrotation
												End site
												{
													OFFSET 0.00000 0.00000 0.00000
												}
											}
										}
									}
									JOINT RightHandPinky1
									{
										OFFSET -11.11390 0.00000 -6.03719
										CHANNELS 3 Zrotation Xrotation Yrotation
										JOINT RightHandPinky2
										{
											OFFSET -4.52789 0.00000 0.00000
											CHANNELS 3 Zrotation Xrotation Yrotation
											JOINT RightHandPinky3
											{
												OFFSET -2.46976 0.00000 0.00000
												CHANNELS 3 Zrotation Xrotation Yrotation
												End site
												{
													OFFSET 0.00000 0.00000 0.00000
												}
											}
										}
									}
								}
							}
						}
					}
					JOINT LeftShoulder
					{
						OFFSET 0.01000 7.91373 5.19711
						CHANNELS 3 Zrotation Xrotation Yrotation
						JOINT LeftArm
						{
							OFFSET 18.41580 0.00000 0.00000
							CHANNELS 3 Zrotation Xrotation Yrotation
							JOINT LeftForeArm
							{
								OFFSET 29.11090 0.00000 0.00000
								CHANNELS 3 Zrotation Xrotation Yrotation
								JOINT LeftHand
								{
									OFFSET 24.65040 0.00000 0.00000
									CHANNELS 3 Zrotation Xrotation Yrotation
									JOINT LeftHandThumb1
									{
										OFFSET 5.35114 -0.85590 3.97906
										CHANNELS 3 Zrotation Xrotation Yrotation
										JOINT LeftHandThumb2
										{
											OFFSET 4.52789 0.00000 0.00000
											CHANNELS 3 Zrotation Xrotation Yrotation
											JOINT LeftHandThumb3
											{
												OFFSET 2.46977 0.00000 0.00000
												CHANNELS 3 Zrotation Xrotation Yrotation
												End site
												{
													OFFSET 0.00000 0.00000 0.00000
												}
											}
										}
									}
									JOINT LeftHandIndex1
									{
										OFFSET 14.26970 0.00000 2.88139
										CHANNELS 3 Zrotation Xrotation Yrotation
										JOINT LeftHandIndex2
										{
											OFFSET 5.48836 0.00000 0.00000
											CHANNELS 3 Zrotation Xrotation Yrotation
											JOINT LeftHandIndex3
											{
												OFFSET 3.01859 0.00000 0.00000
												CHANNELS 3 Zrotation Xrotation Yrotation
												End site
												{
													OFFSET 0.00000 0.00000 0.00000
												}
											}
										}
									}
									JOINT LeftHandMiddle1
									{
										OFFSET 14.26970 0.00000 -0.09147
										CHANNELS 3 Zrotation Xrotation Yrotation
										JOINT LeftHandMiddle2
										{
											OFFSET 6.17440 0.00000 0.00000
											CHANNELS 3 Zrotation Xrotation Yrotation
											JOINT LeftHandMiddle3
											{
												OFFSET 3.56744 0.00000 0.00000
												CHANNELS 3 Zrotation Xrotation Yrotation
												End site
												{
													OFFSET 0.00000 0.00000 0.00000
												}
											}
										}
									}
									JOINT LeftHandRing1
									{
										OFFSET 12.69180 0.00000 -3.06433
										CHANNELS 3 Zrotation Xrotation Yrotation
										JOINT LeftHandRing2
										{
											OFFSET 5.62556 0.00000 0.00000
											CHANNELS 3 Zrotation Xrotation Yrotation
											JOINT LeftHandRing3
											{
												OFFSET 3.56744 0.00000 0.00000
												CHANNELS 3 Zrotation Xrotation Yrotation
												End site
												{
													OFFSET 0.00000 0.00000 0.00000
												}
											}
										}
									}
									JOINT LeftHandPinky1
									{
										OFFSET 11.11390 0.00000 -6.03719
										CHANNELS 3 Zrotation Xrotation Yrotation
										JOINT LeftHandPinky2
										{
											OFFSET 4.52789 0.00000 0.00000
											CHANNELS 3 Zrotation Xrotation Yrotation
											JOINT LeftHandPinky3
											{
												OFFSET 2.46976 0.00000 0.00000
												CHANNELS 3 Zrotation Xrotation Yrotation
												End site
												{
													OFFSET 0.00000 0.00000 0.00000
												}
											}
										}
									}
								}
							}
						}
					}
					JOINT pCube4
					{
						OFFSET 0.00000 10.91090 1.10792
						CHANNELS 3 Zrotation Xrotation Yrotation
						End site
						{
							OFFSET 0.00000 0.00000 0.00000
						}
					}
				}
			}
		}
	}
	JOINT RightUpLeg
	{
		OFFSET -9.98441 0.00000 0.00000
		CHANNELS 3 Zrotation Xrotation Yrotation
		JOINT RightLeg
		{
			OFFSET 0.00000 -42.11790 0.00000
			CHANNELS 3 Zrotation Xrotation Yrotation
			JOINT RightFoot
			{
				OFFSET 0.00000 -45.00020 -0.00001
				CHANNELS 3 Zrotation Xrotation Yrotation
				JOINT RightForeFoot
				{
					OFFSET 0.00000 -3.74820 0.00000
					CHANNELS 3 Zrotation Xrotation Yrotation
					JOINT RightToeBase
					{
						OFFSET 0.00000 0.06325 14.43120
						CHANNELS 3 Zrotation Xrotation Yrotation
						End site
						{
							OFFSET 0.00000 0.00000 0.00000
						}
					}
				}
			}
		}
	}
	JOINT LeftUpLeg
	{
		OFFSET 9.98441 0.00000 0.00000
		CHANNELS 3 Zrotation Xrotation Yrotation
		JOINT LeftLeg
		{
			OFFSET 0.00000 -42.11800 0.00000
			CHANNELS 3 Zrotation Xrotation Yrotation
			JOINT LeftFoot
			{
				OFFSET 0.00000 -45.00070 0.00000
				CHANNELS 3 Zrotation Xrotation Yrotation
				JOINT LeftForeFoot
				{
					OFFSET 0.00000 -3.74824 0.00000
					CHANNELS 3 Zrotation Xrotation Yrotation
					JOINT LeftToeBase
					{
						OFFSET 0.00000 0.06325 14.43110
						CHANNELS 3 Zrotation Xrotation Yrotation
						End site
						{
							OFFSET 0.00000 0.00000 0.00000
						}
					}
				}
			}
		}
	}
}
MOTION
Frames: 4
Frame Time: 0.050000
-0.027718803910883733 0.00353288235680575 0.02275661246916951 -0.03616081779456875 0.03036602721128518 -0.017284034319170843 4.778745679792052 1.9882203178654414 -2.2527140465011146 -0.7203747970099736 3.413682586686272 0.3859068914202459 -0.8567796788569237 -1.6098325220549794 2.1736592395023324 -1.0434590029121062 -0.7612800476275868 -0.0583334449078701 1.2127804764074106 13.861882555453702 -2.767116938220718 0.4981556814424456 -0.46478480839423186 -6.696647619103465 1.6117811681661403 -17.35424034568057 -0.6700740458498152 -15.475711559920327 4.741414450485684 -18.821492498306853 80.41914319604007 -12.308145716023283 39.01119953738349 3.314288794665979 4.97437397730624 103.57774507883174 20.039608002665794 -0.9493560566420154 -5.717379188988388 4.553418509382744 -0.12014540107802045 -1.5954073901814227 -0.03887814716381006 -0.003470487015466206 -56.24347650943479 -0.011394361278908199 -0.04830709981397968 -56.22371175097633 -38.77514847717771 0.014057936504202541 -0.037864660666681954 0.0431231523184569 -0.01716445538392657 0.04418759630922989 0.0154670918048867 -0.02232879320239046 -0.014307767388436851 -36.735362201803845 0.010316000605123743 -0.024588917953397786 0.04729431857584668 -0.046526417031341624 0.008119627111211482 0.008872355565996045 -0.019641892935108485 0.04296940551660747 -19.782534428540377 0.034495446089763626 0.03334624211967818 0.0075382878294295574 -0.04868794883389256 0.02457825332827963 -0.021298452001119992 -0.02402811489195526 -0.02399580829776859 24.092419760507138 -0.04124335054502373 -0.047422733448764874 28.909446534039294 -0.018259547989933192 -0.0007685425500499088 28.852574790174515 0.013590198212465017 0.001069763384961429 10.705596118147348 2.5006627777430803 14.779240691958119 -73.0296184440636 20.462796851250808 -11.454469825457819 -28.56953208249553 10.336532638841536 -86.38421014024713 -29.949917128307124 -11.513764809946334 9.182500908182746 -0.5073535181518161 0.10363991600038572 -8.139346430972651 -0.010514263113955357 0.04461055175179837 44.5493832755876 0.004198562338486159 0.028174496412209527 44.51847031439928 12.429856577764143 -0.04067918546793273 0.04009358807848117 0.03651105228378683 0.046647742833752344 0.020679348828512058 -0.027557688220027778 -0.014351512004698147 0.0297465031065467 11.077990657044797 -0.016467004440960525 -0.0022752151399863633 0.011512942264004877 -0.0007548000514260623 0.009744180764357109 -0.016066416300380502 0.017548383552426487 -0.032709437432584906 4.796246772151427 0.03007448421958834 -0.031311870972329965 -0.03325025432905434 -0.01073442956428158 -0.0012704263349719539 0.015899154686454225 -0.040762135366114956 0.018353847636332004 -5.616080480031122 0.031869817926669514 0.033745663506455977 -6.750763373593654 0.008350971636264809 0.020999679386135433 -6.74298945320676 0.02717331491210315 -0.021029622927489146 -0.006819657955215229 0.015075224059172363 0.02078818885134707 8.069272912308804 3.462943019072548 -19.19086425307564 -0.00607075131175559 10.35706187402125 -0.02493398961711701 -5.59757348604042 -15.651949255576437 3.2339605006562757 0.009631826880406383 0.016516157069017035 -0.033488367082201854 -0.041342790719380795 4.714166305451524 0.017382843070642823 12.472480454085664 -8.225011308599695 6.858378157990319 -0.029022313344552783 46.3494730797012 0.047524934724415276 -4.359186025746961 -14.77534695065626 -3.873445919617484 -0.014943920876474224 -0.020736320910986115 0.0004726865073928977 0.019135635234998654 -10.718709562514869 0.0021654508525002195 
0.03145329569145119 -0.0371548534310482 0.037735604208863474 0.007982897440748364 -0.01192621216265304 0.012826766719726226 4.657158427917404 2.1434470961266503 -2.2099814250230736 -0.700737118992328 3.4204556491362337 0.3649512401663234 -0.9163685095579333 -1.6050003370777695 2.0351728533369764 -0.920659060755397 -0.7655434513886111 -0.14505421323772882 1.1609898372590464 13.559954771916509 -2.792979895614181 0.4641298316083368 -0.5917998763897491 -6.8517203521898615 1.5313884804450022 -17.438091836477067 -0.6954803900407491 -14.689774366398371 4.523782481496091 -18.48559084568606 77.6676217184325 -10.84521805709632 37.44549840603162 4.319101261286085 4.570582652168847 102.51982536762603 20.855932820574086 -0.8485864710737793 -5.9705286799372015 4.497255838027649 -0.09066202924797176 -1.599357281177829 -0.016296022267110962 -0.04143088686311989 -56.260548020583215 -0.015645367497810706 0.002136805681185261 -56.2300993765265 -38.73454750368502 -0.04127837850221831 0.002104729593014672 0.01095318824794117 -0.024998297745062847 -0.025114067961865216 -0.023303004599965187 0.004443709305456553 -0.0278282710182444 -36.689482692288834 -0.0496775011462664 0.02377902751742263 -0.030776810016826053 0.009578945086936465 -0.011919025790563914 0.0022712753787778118 0.020893633513832534 -0.01856667420166507 -19.76212212182012 0.02761003915004924 0.02607497904620603 0.027818329221599124 0.0031853553444701034 -0.013452780203293227 -0.012410892398973165 0.01362687766527065 -0.031404210012608076 24.03096815787131 0.012547008350131129 0.001547919703307665 28.845641386744557 -0.003811220513983269 0.0048950206395370266 28.827018706283308 0.01858159522721955 -0.03130002162892867 10.271089464025744 2.4058660109729497 14.603256723805044 -71.95308860207804 20.793667334174533 -11.684030086104377 -27.005592595923765 8.858559141259647 -87.71751567832821 -29.330432740668186 -11.038192819735622 8.62038795539399 -0.44180745861048426 0.0762443950402659 -8.092637206424886 -0.032732859955987105 -0.011217385100995753 44.600260126719604 0.0387323213518843 0.02369240919942591 44.602197959989766 12.466181751002901 0.012949442154999642 0.03761348142005566 -0.03819654243266614 0.011432110135507535 0.027034390431590175 0.01573901814343663 0.013160283126632814 0.0026435635921796706 11.084686389371946 0.012224332477996983 -0.027149731525050385 -0.004144628647931148 -0.0014134518621101517 -0.017286691749896655 -0.024129818088356247 -0.049067712765998826 -0.03613354483621085 4.795134107394765 -0.003338128622086819 -0.025168881104398473 0.0430900407592394 0.009055282392150952 -0.03255941975094266 0.0175625729810176 0.005481830939953397 -0.019875202131364112 -5.610510129723673 -0.0079797423774834 -0.04155630167966422 -6.6803477699784315 -0.026127155768431717 -0.01811191496704739 -6.753418258470912 -0.047342501693913554 0.03230173098177479 0.03202691507176939 -0.01124519564193689 -0.01676242332506911 8.034122845690694 3.5159523692377292 -19.237576350842264 0.01678321996899489 10.418989196983658 -0.021583157300520007 -5.590488923117548 -15.662048866936644 3.217039210442325 0.018920036597677835 -0.013239359237169897 0.01661619282602796 0.014214612994047365 4.699395623470112 -0.002430844227452492 12.409401403577746 -8.217874683251717 6.848698859534913 -0.008932783856381472 46.41761639047328 -0.0285163971959845 -4.361880282272573 -14.725093874328634 -3.883523449166244 -0.010370364525436824 0.03925827551557097 0.028585744772426258 -0.04818281292866134 -10.741380113169559 -0.014503361880272106 
-0.004371933238794739 0.008831368058787795 -0.021058124070280376 0.0062219559754101835 -0.02030527310393716 0.03716088211730598 4.392188582009857 2.3580938459835314 -2.1107390357034626 -0.7141804313255471 3.4390030683939496 0.4010492034642398 -0.8512701404633652 -1.4639660811005621 1.9911983938214968 -0.8674241213727585 -0.7379320814864113 -0.16939670759728734 1.1015967649248957 13.183632735107075 -2.789255944894817 0.4729837857397132 -0.6850532990715618 -6.954209291798191 1.4392936184781497 -17.537494817572572 -0.6761489982931989 -13.769506371900206 4.330452746668741 -17.98838398775245 74.73195035390704 -8.365740342233536 35.166732396681155 4.7702146553357325 3.7856565380068377 101.90936668290638 21.465364144992684 -0.7390462021995002 -6.246292478569135 4.524436842915818 -0.14255892847569895 -1.6405106413159716 0.009942090859085385 0.022262987226239025 -56.213353506998985 -0.0032647738339136386 -0.025367719484118353 -56.24531942157676 -38.78859721568946 0.029707201704316042 -0.04849674500989675 -0.028014888235423613 0.04877457899202408 -0.005820103999786006 -0.03583427619499171 0.017418692761500307 -0.013327294837866108 -36.654217612980005 0.023614530142649456 0.046815317987896114 -0.015194757961350188 0.013883468376052175 0.048157902890779924 0.014877729766512665 0.04383190045393879 -0.016910332046090607 -19.77095660408096 0.023264688443492526 0.005086985312432261 0.046091950909565055 -0.009967083196621571 0.006684213250307486 0.033115877942052924 0.004405618874892769 -0.03734999034790349 24.090792053094813 0.037478687790339 -0.04830784968669601 28.849712774024344 -0.0033455816959229406 0.047996800527280795 28.823239649636616 -0.04459949446926755 -0.016276592819696265 9.761074946108259 2.3111051274346734 14.50918617375558 -71.0473189227219 20.843692039463704 -11.636503057745971 -25.533833527581002 7.883228640102365 -88.26777505334236 -28.453126521068164 -10.379844801861564 7.891000823455268 -0.49112351556950695 0.03704497040600502 -8.0861963217383 -0.04404190038394888 -0.0027193646821494564 44.61301961350764 0.04091731073787945 -0.03543617991499862 44.564320929916654 12.448276471405936 0.022139120723054097 -0.0445921036009501 0.0029451368527131116 -0.03818150021445993 -0.004968180542098633 0.012172792200818204 -0.041705123399900366 0.003953529129520028 11.140052105767033 0.01713156472956781 0.03936777584416588 1.429787942203392e-05 -0.03360542161043587 0.04070317996362289 0.004449335960409043 0.0262228353948618 0.0029990658007381325 4.760246081798442 -0.004696476363207696 -0.008258115350553605 -0.014309761984487097 0.02618134334844978 -0.022081639622007487 0.04689871742127198 -0.014210717775489037 0.011093749136943394 -5.612264378837946 -0.04370900023014937 0.03341827513151426 -6.7178474404831565 0.021636774006214405 -0.03382586266316788 -6.688026805033378 0.007764814618581076 0.0009431867395774222 -0.0028189015704099055 0.01538869144031443 -0.014095462089285101 8.003338727983504 3.494613354260517 -19.194168303107947 -0.011205561964717548 10.383822188261215 -0.00046303158703049976 -5.596487228620254 -15.615096898617113 3.19334783647862 -0.030975624360764994 -0.01184784329154295 0.023266758580292552 0.015469620958948736 4.73527457107902 0.04153178000470168 12.411804903875172 -8.228784904275416 6.87201061288419 0.017966670652007802 46.353058055916826 0.019678999862294738 -4.319997007477214 -14.785201515220514 -3.7933667343612085 -0.031146433384481725 0.022935390662025167 0.0439717213078922 0.0017940212065120813 -10.73705867072493 0.010001480489917223 
-0.038451995857759325 0.004390877126185479 -0.01223640396380142 -0.005777001710830878 0.023080258385962102 -0.019893610983876188 4.214313885756234 2.5522254489794145 -2.0606027147508565 -0.6798431795490307 3.469721970018151 0.44722663429573484 -0.8536325632597268 -1.3286930713564749 1.8695095218277396 -0.8158876961804709 -0.7250506574669265 -0.17422571221380073 0.9643837297364245 12.739776283144336 -2.6850498190797936 0.33993277962435287 -0.8364293600740047 -7.074412878887702 1.3739004358720899 -17.511699683993278 -0.6395012899896336 -12.754079800603261 4.142571174825718 -17.570093972021596 71.53829680261659 -5.437316683140024 32.07570831086188 4.293054254338188 2.645792932527383 101.36179038155028 22.140527469279792 -0.7747485379667559 -6.307704114864091 4.540699624300003 -0.13342987373666 -1.6157009624065286 -0.004595931396421316 0.01843087320205043 -56.19454812040422 0.027022423516146758 -0.014439212921956114 -56.277786256538235 -38.72047092814265 0.0035427846852237902 -0.011362030666946531 -0.0392113757506958 0.02027693324120674 -0.0033598345698040762 -0.026192590152533987 0.04464133779349091 -0.02442171443148369 -36.703871855614175 0.0421272302375911 0.013968698774703671 -0.02973069279218503 -0.006277472160704349 0.0053604899477979456 0.031023128703403475 0.02333241298454717 -0.017487203308439316 -19.75017955824962 0.047105802375308765 0.03450923415697126 0.029414875047688742 -0.0013010894298091634 -0.018879882733434012 -0.024785302759232606 -0.0444089921270017 -0.009548193103047364 24.062967653699367 0.011837561060052581 0.0074788891759492125 28.845555010113593 0.011613473633846969 0.004622115893656216 28.858182863578932 -0.03258375920192245 0.0426408915070748 9.209300599025257 2.1981905090187364 14.449592868196536 -70.07272359885204 20.15738776645913 -11.490476197444568 -24.657840325821795 7.186861138509467 -88.74409123884615 -28.090549179105615 -9.862680734620078 7.338042937404938 -0.49883403116707425 0.026318936789425 -8.143874928418414 0.026746891103029562 0.005748404729581176 44.5526303804644 -0.044956518766185484 -0.02564065722365203 44.5312856136144 12.438524323665517 0.01575224396336955 0.04556980169298823 0.03149917314002162 0.04978592586012026 0.011220320150383089 0.03401450976974389 -0.0132853007587242 -0.042888286571785915 11.094884047026536 -0.024839233732351446 0.01816934441467435 -0.016523679807874184 -0.005986372575491613 -0.043895195459309796 -0.020679468951875158 0.03170586896627574 -0.007449961162847103 4.753905439003494 0.013872743471792237 0.02448934155863505 0.03594567429164807 0.02285297161559929 0.014709783918226036 -0.0014435450355506142 -0.02681044672197275 0.032387097884225495 -5.606895010713645 0.04705239944637443 -0.010601315665697494 -6.726195230331978 0.03004900401253126 -0.00891057708985891 -6.758584902007613 -0.027093188889877957 -0.004385611705645287 0.04416082514395766 -0.0327687343027478 0.03624580098250182 8.00862303964864 3.5412890313306464 -19.21459022680181 -0.025995715088493482 10.357092075243656 0.01715001771504226 -5.622459790191395 -15.668443980405472 3.1995833177618254 0.010438287485297727 0.01720903700057995 0.0008394544123003392 0.03013249176932979 4.715924225497055 0.026015053411102985 12.49428963601699 -8.283244200864536 6.849457475768267 0.020931483978862457 46.39702109590996 0.015081296635218061 -4.368163766148159 -14.738950104617302 -3.8598766270170723 -0.03591482012398495 0.0046537820196907945 0.04318694137375109 0.044587280046961386 -10.79422705087821 -0.0007860695500465158 
